<svg width="36" height="37" viewBox="0 0 36 37" fill="none" xmlns="http://www.w3.org/2000/svg">
<path d="M28.9471 14.849H7.05307C6.60999 14.8495 6.17276 14.9501 5.77405 15.1434C5.37533 15.3366 5.02546 15.6175 4.75057 15.965C4.47683 16.3115 4.28554 16.7158 4.1912 17.1472C4.09686 17.5786 4.10195 18.0259 4.20607 18.455L6.55357 28.067C6.89345 29.3054 7.6314 30.3976 8.65357 31.175C9.67657 31.9535 10.9291 32.375 12.2176 32.375H23.7796C25.0681 32.375 26.3206 31.9535 27.3436 31.175C28.3657 30.3976 29.1037 29.3054 29.4436 28.067L31.7911 18.4565C31.9491 17.8086 31.8797 17.1261 31.5947 16.5231C31.3096 15.9202 30.8261 15.4335 30.2251 15.1445C29.8252 14.9525 29.3877 14.8516 28.9441 14.849M12.1306 20.69V26.5325M18.0001 20.69V26.5325M23.8696 20.69V26.5325M28.2721 14.849C28.2715 13.5051 28.0054 12.1745 27.4891 10.9337C26.9727 9.69296 26.2162 8.56648 25.2631 7.619C23.3333 5.69975 20.7217 4.62321 18.0001 4.625C15.2784 4.62321 12.6668 5.69975 10.7371 7.619C9.78421 8.5666 9.028 9.69314 8.51187 10.9339C7.99575 12.1747 7.72989 13.5052 7.72957 14.849" stroke="#001731" stroke-width="2" stroke-linecap="round" stroke-linejoin="round"/>
</svg>
