<svg width="81" height="36" viewBox="0 0 81 36" fill="none" xmlns="http://www.w3.org/2000/svg">
<path d="M17.5959 0.148178C15.5675 0.760136 13.973 2.7137 13.6584 4.97324C13.4632 6.30308 13.756 7.82121 14.4177 8.96275C14.6021 9.26873 14.7431 9.55117 14.7431 9.59824C14.7431 9.63355 14.4177 10.0337 14.0272 10.4573L13.3113 11.2458L12.4652 10.6221C11.5432 9.93953 10.7405 9.57471 9.59071 9.30403C8.60361 9.06866 6.60773 9.16281 5.68572 9.48056C2.95222 10.422 0.891258 12.764 0.197037 15.7414C0.0017876 16.5887 -0.030754 16.9535 0.023482 18.2127C0.0885652 19.8486 0.272967 20.6253 0.945493 22.0375C1.42277 23.026 2.97392 24.7795 3.91762 25.368C6.61858 27.0862 10.3175 26.8743 12.7255 24.8737L13.2571 24.4265L14.0055 25.2503L14.7648 26.0623L14.4719 26.5684C13.0727 28.9691 13.3655 32.0289 15.1662 33.9825C15.9146 34.7945 16.6088 35.2535 17.5525 35.5359C19.4291 36.1008 21.4358 35.5359 22.8351 34.0413C24.9937 31.7465 25.0263 28.0041 22.9111 25.7093C21.7721 24.4736 20.6765 23.9793 19.0386 23.9793C17.7803 23.9793 16.9343 24.25 15.9797 24.9325L15.535 25.2621L14.8191 24.4736C14.4177 24.0381 14.0923 23.638 14.0923 23.5909C14.0923 23.5321 14.2658 23.2496 14.4828 22.9437C14.9818 22.2376 15.5458 20.9548 15.7845 19.978C16.0773 18.8129 16.0556 16.7652 15.7411 15.5884C15.4699 14.5645 14.9275 13.3524 14.396 12.5874L14.0489 12.0814L14.8082 11.2576L15.5784 10.422L16.0556 10.7869C17.0861 11.5753 18.8542 11.9284 20.1993 11.6224C21.7504 11.2811 23.2365 9.99837 23.9632 8.39786C24.4188 7.38577 24.6032 5.97356 24.4297 4.83202C24.1151 2.85492 22.77 1.07788 21.0236 0.324703C20.2535 -0.0165825 18.4203 -0.110729 17.5959 0.148178ZM20.6332 1.38387C21.7938 1.86637 22.77 2.92553 23.2148 4.19652C23.4968 5.02032 23.5185 6.37369 23.269 7.27986C22.9111 8.59793 21.8372 9.83361 20.6332 10.3279C19.8522 10.6456 18.2576 10.6574 17.5634 10.3632C16.3268 9.83361 15.3723 8.82153 14.9384 7.58584C14.5804 6.55021 14.5804 5.00855 14.9492 4.09061C15.4916 2.70193 16.4136 1.78399 17.7261 1.27795C18.5505 0.960201 19.722 0.995506 20.6332 1.38387ZM9.31953 10.3985C11.3913 10.9163 12.7364 11.9049 13.8428 13.7172C14.6997 15.1059 15.0143 16.4239 14.9275 18.2716C14.8516 20.1192 14.3635 21.4255 13.2137 22.8613C12.0313 24.3441 10.4585 25.1914 8.49514 25.368C6.41248 25.568 4.64439 24.8737 3.14747 23.2732C2.42071 22.4965 1.50955 21.1078 1.50955 20.79C1.50955 20.7312 1.46616 20.59 1.40108 20.4723C1.22752 20.131 0.967188 18.4717 0.967188 17.6949C0.967188 17.0241 1.22752 15.7061 1.53124 14.8587C1.80242 14.0938 2.54003 13.0111 3.26679 12.2697C4.14542 11.387 5.20844 10.7751 6.3474 10.4926C6.75959 10.3985 7.21517 10.269 7.36703 10.222C7.69245 10.1043 8.37582 10.1631 9.31953 10.3985ZM20.7742 25.4386C22.5531 26.3212 23.486 27.9923 23.3992 30.1224C23.3233 31.9465 22.4772 33.2999 20.8826 34.1825C20.2535 34.5238 18.9735 34.7003 18.1708 34.5356C16.9017 34.2885 15.6543 33.2293 15.0468 31.8877C14.7106 31.1463 14.6889 31.0404 14.6889 29.8047C14.6889 28.5808 14.7106 28.4748 15.036 27.804C15.676 26.486 16.6414 25.5916 17.8563 25.2032C18.6698 24.9561 20.004 25.062 20.7742 25.4386Z" fill="white"/>
<path d="M24.7769 13.1407C22.6834 13.5173 21.2516 14.6118 20.438 16.4712C19.1798 19.3545 19.7764 21.5552 22.0326 22.3319C22.7051 22.5673 23.0305 22.6026 24.2346 22.5908C25.0156 22.5908 25.8833 22.5084 26.1762 22.426L26.7077 22.2731L26.9681 21.461C27.0982 21.0021 27.2175 20.6019 27.2175 20.5549C27.2175 20.5078 27.0331 20.5313 26.8162 20.6019C26.5884 20.6725 25.7206 20.7314 24.8854 20.7314C23.5078 20.7432 23.3234 20.7196 22.9112 20.4725C22.0326 19.9782 21.8156 19.1309 22.217 17.8246C22.6726 16.33 23.3126 15.5886 24.5166 15.1414C25.6447 14.7295 26.8053 14.7765 28.5734 15.3297C28.7687 15.3885 28.8338 15.2944 29.0507 14.5647C29.1809 14.094 29.2677 13.6939 29.2351 13.6585C29.2026 13.6232 28.8555 13.4938 28.4541 13.3761C27.6406 13.129 25.5905 12.9995 24.7769 13.1407Z" fill="white"/>
<path d="M34.4307 13.1634C32.5975 13.4223 31.285 14.4815 30.4389 16.3644C29.9291 17.4942 29.7122 18.4122 29.7122 19.3889C29.7122 21.519 31.2091 22.637 34.051 22.6017C37.1425 22.5782 38.8563 21.2248 39.8109 18.0356C40.1146 17.0353 40.1472 15.6701 39.876 15.0111C39.2468 13.4929 37.1099 12.7633 34.4307 13.1634ZM37.034 15.1052C37.5221 15.3759 37.8476 15.9761 37.8476 16.5763C37.8476 17.7884 36.9255 19.7185 36.0578 20.3186C34.8971 21.1189 32.9229 21.0483 32.2612 20.201C31.5779 19.3066 32.2287 16.6822 33.4111 15.576C33.6497 15.3641 34.0944 15.0935 34.409 14.9875C35.1683 14.7404 36.4808 14.7992 37.034 15.1052Z" fill="white"/>
<path d="M44.5188 13.1521C43.1521 13.3522 43.1521 13.3522 42.8266 14.3055C42.6422 14.835 42.588 15.1528 42.6639 15.1528C42.729 15.141 43.0978 15.0704 43.4883 14.9763C44.4212 14.7527 46.2001 14.7527 46.6882 14.9645C47.1872 15.1999 47.3391 15.5411 47.1872 16.106C47.0137 16.718 46.4388 17.224 44.9202 18.0831C42.2084 19.613 41.1453 20.2485 40.9175 20.4721C40.6789 20.7075 40.3101 21.5313 40.1799 22.1197L40.104 22.4492H43.9981H47.8923L48.1309 21.7078C48.2611 21.3077 48.3696 20.9076 48.3696 20.8369C48.3696 20.7193 47.7947 20.684 46.0374 20.6604L43.7161 20.6251L45.6252 19.5659C48.3153 18.0831 49.1614 17.3417 49.4543 16.2002C49.9641 14.2819 48.9011 13.211 46.3845 13.0933C45.7771 13.0698 44.9419 13.0933 44.5188 13.1521Z" fill="white"/>
<path d="M53.0228 13.5875C52.7299 14.4349 50.1808 22.0608 50.1266 22.2491C50.0832 22.4374 50.2893 22.4492 53.6953 22.4257L57.3183 22.3903L57.5569 21.6842C57.6871 21.2959 57.7955 20.9075 57.7955 20.8251C57.8064 20.7192 57.264 20.6839 55.4417 20.6839C54.14 20.6839 53.0445 20.6604 53.0119 20.6251C52.9685 20.5662 53.5651 18.6833 54.9102 14.7055L55.3875 13.2698H54.2593H53.1421L53.0228 13.5875Z" fill="white"/>
<path d="M64.9006 13.4934C64.7162 13.6111 63.8593 14.7409 63.0023 15.9883C60.0845 20.225 58.6743 22.308 58.6743 22.3786C58.6743 22.4139 59.1841 22.4492 59.8024 22.4492H60.9414L61.6031 21.4489L62.2756 20.4486L64.2932 20.4721L66.3216 20.5074L66.3541 21.4724L66.3867 22.4492H67.4714H68.5453L68.491 21.5313C68.4259 20.5192 68.2198 14.7056 68.2198 13.8229V13.2698H66.7338C65.4538 13.2698 65.1826 13.3051 64.9006 13.4934ZM66.2674 16.8239V18.801H64.8464C63.7508 18.801 63.4362 18.7657 63.4796 18.648C63.5013 18.5774 64.1088 17.6242 64.8138 16.5297C65.6708 15.1999 66.1155 14.6114 66.1806 14.7056C66.224 14.788 66.2674 15.7412 66.2674 16.8239Z" fill="white"/>
<path d="M73.1877 13.8229C73.0901 14.1289 72.4176 16.1295 71.7017 18.2714C70.9749 20.4015 70.3892 22.2256 70.3892 22.3079C70.3892 22.4374 71.0508 22.4609 74.0555 22.4256C78.069 22.3668 78.2968 22.3315 79.0886 21.6254C79.9347 20.8722 80.2167 19.307 79.6418 18.5538C79.4791 18.3537 79.1971 18.1184 79.0127 18.0242C78.7198 17.8948 78.709 17.8712 78.9042 17.8006C80.0649 17.4123 80.7157 16.6944 80.9326 15.5764C81.0411 15.0233 81.0303 14.9056 80.8133 14.4113C80.6289 13.9994 80.4554 13.8111 80.0649 13.5993C79.5767 13.3404 79.4357 13.3286 76.4527 13.2933L73.3504 13.258L73.1877 13.8229ZM78.1774 15.0468C78.9476 15.341 78.6656 16.5296 77.7327 16.9062C77.5592 16.9768 76.7456 17.0357 75.8995 17.0357C74.6196 17.0357 74.3918 17.0121 74.4352 16.8709C74.4677 16.7768 74.6304 16.2943 74.7931 15.8118L75.086 14.9174H76.4636C77.2229 14.9174 77.993 14.9762 78.1774 15.0468ZM77.3097 18.695C77.7761 18.8716 77.9388 19.3423 77.7219 19.8954C77.4507 20.6133 77.1036 20.7192 75.0318 20.778C72.9383 20.8369 73.0576 20.9193 73.4806 19.6718C73.6325 19.2246 73.7843 18.7892 73.806 18.7068C73.8711 18.5303 76.8215 18.5067 77.3097 18.695Z" fill="white"/>
</svg>
