<svg width="62" height="54" viewBox="0 0 62 54" fill="none" xmlns="http://www.w3.org/2000/svg">
<path d="M21.1335 34.8948H49.0668C49.3724 34.8948 49.5779 34.5781 49.4446 34.3004L33.8002 1.23926C33.6779 0.983704 33.3502 0.922593 33.1446 1.10593L10.6224 21.4726C10.4557 21.6226 10.4391 21.8726 10.5779 22.0448L20.8113 34.7393C20.8891 34.8393 21.0113 34.8948 21.1335 34.8948Z" stroke="#001731" stroke-width="1.11111" stroke-miterlimit="10"/>
<path d="M24.2611 9.13916L49.3667 34.7725" stroke="#001731" stroke-width="1.11111" stroke-miterlimit="10"/>
<path d="M10.3334 21.7393L49.3667 34.7726" stroke="#001731" stroke-width="1.11111" stroke-miterlimit="10"/>
<path d="M36.689 7.34473L20.939 34.8947" stroke="#001731" stroke-width="1.11111" stroke-miterlimit="10"/>
<path d="M2.10667 51.2222H0.933333L4.42667 41.6222H5.6L2.10667 51.2222ZM16.0385 43.1422C15.1052 42.7155 14.083 42.5022 12.9719 42.5022C10.4119 42.5022 8.73187 43.7199 7.93187 46.1555C7.47854 47.5155 7.51854 48.5555 8.05187 49.2755C8.58521 49.9866 9.55854 50.3422 10.9719 50.3422C12.163 50.3422 13.1763 50.2133 14.0119 49.9555L13.6385 50.9822C12.9363 51.2311 11.9497 51.3555 10.6785 51.3555C8.97187 51.3555 7.7541 50.8533 7.02521 49.8488C6.30521 48.8444 6.24743 47.5244 6.85187 45.8888C7.93632 42.9555 10.0208 41.4888 13.1052 41.4888C14.243 41.4888 15.3452 41.6977 16.4119 42.1155L16.0385 43.1422ZM16.4146 51.2222L19.9079 41.6222H27.5612L27.1879 42.6355H20.7079L19.5212 45.9155H25.3346L24.9612 46.9288H19.1479L17.9612 50.2088H24.4412L24.0679 51.2222H16.4146ZM26.7333 51.2222L30.2267 41.6222H31.4L28.28 50.2088H34.76L34.3867 51.2222H26.7333ZM44.1222 47.6488L43.7089 42.2888L39.6555 47.6488H44.1222ZM44.3889 51.2222L44.1889 48.6622H38.8822L36.9489 51.2222H35.6422L42.6955 42.0755C42.9266 41.7733 43.2244 41.6222 43.5889 41.6222H44.7222L45.5222 51.2222H44.3889ZM55.1553 42.6355H51.7553L50.5686 45.9022H53.5553C54.5953 45.9022 55.3953 45.7955 55.9553 45.5822C56.5242 45.3688 56.9109 44.9688 57.1153 44.3822C57.3375 43.7422 57.2931 43.2933 56.982 43.0355C56.6798 42.7688 56.0709 42.6355 55.1553 42.6355ZM53.7953 46.9155H50.2086L49.0086 50.2088H52.9953C53.982 50.2088 54.702 50.1155 55.1553 49.9288C55.6086 49.7422 55.9242 49.3999 56.102 48.9022C56.3331 48.2444 56.2531 47.7511 55.862 47.4222C55.4798 47.0844 54.7909 46.9155 53.7953 46.9155ZM47.462 51.2222L50.9553 41.6222H55.4886C56.7153 41.6222 57.5598 41.8933 58.022 42.4355C58.4931 42.9688 58.5642 43.6799 58.2353 44.5688C57.8709 45.5466 57.0975 46.1688 55.9153 46.4355C56.5553 46.6222 56.9864 46.9688 57.2086 47.4755C57.4398 47.9822 57.4353 48.5422 57.1953 49.1555C56.6709 50.5333 55.382 51.2222 53.3286 51.2222H47.462Z" fill="#001731"/>
</svg>
