<svg width="102" height="89" viewBox="0 0 102 89" fill="none" xmlns="http://www.w3.org/2000/svg">
<path d="M34.3356 57.2782H80.5859C81.0918 57.2782 81.4321 56.7524 81.2114 56.2912L55.3083 1.39726C55.1059 0.972942 54.5632 0.871475 54.2229 1.17588L16.932 34.9922C16.656 35.2413 16.6284 35.6564 16.8584 35.9423L33.8021 57.0199C33.9309 57.1859 34.1332 57.2782 34.3356 57.2782Z" stroke="#F5F7FF" stroke-width="1.83971" stroke-miterlimit="10"/>
<path d="M39.5142 14.5137L81.0824 57.0747" stroke="#F5F7FF" stroke-width="1.83971" stroke-miterlimit="10"/>
<path d="M16.4536 35.4346L81.0825 57.0748" stroke="#F5F7FF" stroke-width="1.83971" stroke-miterlimit="10"/>
<path d="M60.0915 11.5342L34.0136 57.2776" stroke="#F5F7FF" stroke-width="1.83971" stroke-miterlimit="10"/>
<path d="M2.83229 83.6299H0.889556L6.6736 67.7348H8.61633L2.83229 83.6299ZM25.8998 70.2515C24.3545 69.5451 22.6619 69.1918 20.8222 69.1918C16.5835 69.1918 13.8019 71.2082 12.4773 75.2408C11.7267 77.4926 11.7929 79.2146 12.676 80.4067C13.5591 81.5841 15.1706 82.1728 17.5107 82.1728C19.4829 82.1728 21.1607 81.9594 22.5442 81.5326L21.926 83.2325C20.7634 83.6446 19.1297 83.8506 17.0251 83.8506C14.1993 83.8506 12.183 83.0191 10.9761 81.356C9.78397 79.6929 9.68831 77.5073 10.6891 74.7993C12.4847 69.9425 15.936 67.514 21.043 67.514C22.9269 67.514 24.7518 67.8599 26.518 68.5516L25.8998 70.2515ZM26.5224 83.6299L32.3065 67.7348H44.9784L44.3603 69.4126H33.6311L31.6663 74.8434H41.2916L40.6735 76.5212H31.0481L29.0833 81.9521H39.8125L39.1944 83.6299H26.5224ZM43.6076 83.6299L49.3916 67.7348H51.3344L46.1685 81.9521H56.8976L56.2795 83.6299H43.6076ZM72.399 77.7134L71.7146 68.8386L65.0033 77.7134H72.399ZM72.8405 83.6299L72.5094 79.3912H63.7229L60.5218 83.6299H58.3583L70.0368 68.4854C70.4194 67.985 70.9125 67.7348 71.5159 67.7348H73.3924L74.717 83.6299H72.8405ZM90.6669 69.4126H85.0374L83.0726 74.8214H88.0177C89.7397 74.8214 91.0643 74.6447 91.9915 74.2915C92.9335 73.9383 93.5737 73.276 93.9122 72.3046C94.2801 71.245 94.2065 70.5017 93.6914 70.0749C93.191 69.6334 92.1828 69.4126 90.6669 69.4126ZM88.4151 76.4992H82.4765L80.4897 81.9521H87.0905C88.7242 81.9521 89.9163 81.7975 90.6669 81.4885C91.4175 81.1794 91.94 80.6128 92.2344 79.7886C92.617 78.6995 92.4846 77.8826 91.837 77.3381C91.2041 76.7788 90.0635 76.4992 88.4151 76.4992ZM77.9288 83.6299L83.7128 67.7348H91.2188C93.2499 67.7348 94.6481 68.1837 95.4134 69.0815C96.1934 69.9645 96.3112 71.1419 95.7666 72.6137C95.1632 74.2327 93.8827 75.2629 91.9253 75.7044C92.985 76.0135 93.6988 76.5875 94.0667 77.4264C94.4494 78.2653 94.442 79.1925 94.0446 80.208C93.1763 82.4893 91.0422 83.6299 87.6424 83.6299H77.9288Z" fill="#F5F7FF"/>
</svg>
