<svg width="62" height="55" viewBox="0 0 62 55" fill="none" xmlns="http://www.w3.org/2000/svg">
<g clip-path="url(#clip0_486_3829_white)">
<path d="M57.1634 47.1178H55.4386L54.8636 48.6893H56.4991C56.9335 48.6893 57.2614 48.634 57.4828 48.5232C57.7042 48.4124 57.8618 48.2251 57.9555 47.9612C58.1599 47.399 57.896 47.1178 57.1634 47.1178ZM56.2435 50.4269H54.2248L53.6245 52.0751H55.7963C56.2137 52.0751 56.5246 52.0281 56.729 51.9346C56.942 51.8408 57.0954 51.6705 57.1889 51.4234C57.419 50.759 57.1039 50.4269 56.2435 50.4269ZM49.2422 54.1959L52.5895 44.9971H59.016C60.1573 44.9971 60.9537 45.2654 61.4052 45.802C61.8566 46.33 61.9417 46.9858 61.6605 47.7694C61.4647 48.3146 61.141 48.7448 60.6896 49.06C60.2381 49.3751 59.6889 49.5667 59.0415 49.6348C59.7144 49.7456 60.1871 50.0479 60.4597 50.5419C60.7321 51.0359 60.7451 51.6109 60.498 52.2667C60.2509 52.9481 59.8167 53.4421 59.1949 53.7487C58.5731 54.0468 57.6829 54.1959 56.5246 54.1959H49.2422Z" fill="white"/>
<path d="M44.8728 50.3886L44.9624 46.6196L42.4582 50.3886H44.8728ZM44.7835 54.1959L44.8218 52.5989H41.0017L39.9413 54.1959H36.1978L41.8959 46.1724C42.1856 45.7467 42.488 45.4443 42.8031 45.2654C43.1268 45.0864 43.5187 44.9971 43.9786 44.9971H48.1691V54.1959H44.7835Z" fill="white"/>
<path d="M27.1707 54.1959L30.518 44.9971H34.1337L31.6295 51.8833H36.3695L35.5263 54.1959H27.1707Z" fill="white"/>
<path d="M16.5906 54.1959L19.9379 44.9971H28.7918L28.0252 47.1178H22.787L22.276 48.5232H26.9904L26.1983 50.6442H21.4966L20.9728 52.0751H26.2111L25.4445 54.1959H16.5906Z" fill="white"/>
<path d="M17.0784 47.6805C16.2181 47.3058 15.2641 47.1182 14.2165 47.1182C13.2881 47.1182 12.5215 47.2973 11.9168 47.6549C11.3206 48.0041 10.8649 48.6344 10.5497 49.5458C10.2431 50.423 10.2857 51.0618 10.6775 51.4622C11.0778 51.8624 11.8061 52.0628 12.8622 52.0628C13.9014 52.0628 14.851 51.952 15.7113 51.7304L14.8425 54.1067C14.0249 54.3198 13.0155 54.4261 11.8146 54.4261C9.69374 54.4261 8.22873 53.9322 7.41958 52.9442C6.61042 51.9562 6.521 50.6018 7.15127 48.8815C7.43236 48.1064 7.80288 47.4461 8.26282 46.9011C8.72276 46.3561 9.25934 45.9301 9.8726 45.6235C10.4859 45.3168 11.1374 45.0997 11.8274 44.9719C12.5173 44.8356 13.2881 44.7676 14.1398 44.7676C15.4771 44.7676 16.7292 44.9762 17.896 45.3934L17.0784 47.6805Z" fill="white"/>
<path d="M3.69964 54.1959H0.0839844L3.43134 44.9971H7.04699L3.69964 54.1959Z" fill="white"/>
<path d="M50.1391 36.7597H22.2118L26.7857 28.6908L50.1391 36.7597ZM25.6462 28.2968L21.1581 36.2147L10.2334 22.9716L25.6462 28.2968ZM52.2554 35.8029L33.4736 16.8917L38.8224 7.45533L52.2554 35.8029ZM50.3667 35.584L27.3802 27.6419L32.8666 17.9627L50.3667 35.584ZM31.999 17.0893L26.2404 27.248L10.3493 21.7575L24.3115 9.34868L31.999 17.0893ZM34.7022 0.114525C34.928 -0.0861138 35.283 -0.0138834 35.4124 0.259008L38.202 6.14581L32.6061 16.0182L25.199 8.56005L34.7022 0.114525Z" fill="white"/>
</g>
<defs>
<clipPath id="clip0_486_3829_white">
<rect width="62" height="54.6137" fill="white"/>
</clipPath>
</defs>
</svg>
